<mxfile host="app.diagrams.net" modified="2021-03-10T11:51:51.934Z" agent="5.0 (Macintosh; Intel Mac OS X 10_14_0) AppleWebKit/537.36 (KHTML, like Gecko) Chrome/88.0.4324.192 Safari/537.36" etag="bqLYlB1lyrhjEWzjxPC1" version="14.4.6" type="github">
  <diagram id="C5RBs43oDa-KdzZeNtuy" name="Page-1">
    <mxGraphModel dx="1113" dy="722" grid="1" gridSize="10" guides="1" tooltips="1" connect="1" arrows="1" fold="1" page="1" pageScale="1" pageWidth="827" pageHeight="1169" math="0" shadow="0">
      <root>
        <mxCell id="WIyWlLk6GJQsqaUBKTNV-0" />
        <mxCell id="WIyWlLk6GJQsqaUBKTNV-1" parent="WIyWlLk6GJQsqaUBKTNV-0" />
        <mxCell id="wGZjn_woL5iFXJ5yavkG-0" value="&amp;nbsp;用户" style="shape=umlLifeline;perimeter=lifelinePerimeter;whiteSpace=wrap;html=1;container=1;collapsible=0;recursiveResize=0;outlineConnect=0;" vertex="1" parent="WIyWlLk6GJQsqaUBKTNV-1">
          <mxGeometry x="60" y="70" width="100" height="670" as="geometry" />
        </mxCell>
        <mxCell id="wGZjn_woL5iFXJ5yavkG-7" value="" style="html=1;points=[];perimeter=orthogonalPerimeter;" vertex="1" parent="wGZjn_woL5iFXJ5yavkG-0">
          <mxGeometry x="45" y="50" width="10" height="620" as="geometry" />
        </mxCell>
        <mxCell id="wGZjn_woL5iFXJ5yavkG-21" value="轮询 | 包含本次请求+上次confirm" style="html=1;verticalAlign=bottom;endArrow=block;align=center;entryX=-0.058;entryY=-0.003;entryDx=0;entryDy=0;entryPerimeter=0;" edge="1" parent="wGZjn_woL5iFXJ5yavkG-0" target="wGZjn_woL5iFXJ5yavkG-20">
          <mxGeometry x="0.0028" width="80" relative="1" as="geometry">
            <mxPoint x="55" y="290" as="sourcePoint" />
            <mxPoint x="135" y="290" as="targetPoint" />
            <mxPoint as="offset" />
          </mxGeometry>
        </mxCell>
        <mxCell id="wGZjn_woL5iFXJ5yavkG-3" value="httpserver（node）" style="shape=umlLifeline;perimeter=lifelinePerimeter;whiteSpace=wrap;html=1;container=1;collapsible=0;recursiveResize=0;outlineConnect=0;" vertex="1" parent="WIyWlLk6GJQsqaUBKTNV-1">
          <mxGeometry x="360" y="70" width="220" height="960" as="geometry" />
        </mxCell>
        <mxCell id="wGZjn_woL5iFXJ5yavkG-27" value="ALT | 是否在群" style="shape=umlFrame;tabWidth=110;tabHeight=30;tabPosition=left;html=1;boundedLbl=1;labelInHeader=1;width=140;height=30;align=left;" vertex="1" parent="wGZjn_woL5iFXJ5yavkG-3">
          <mxGeometry x="20" y="340" width="390" height="580" as="geometry" />
        </mxCell>
        <mxCell id="wGZjn_woL5iFXJ5yavkG-28" value="[登出/退群]" style="text" vertex="1" parent="wGZjn_woL5iFXJ5yavkG-27">
          <mxGeometry width="100" height="20" relative="1" as="geometry">
            <mxPoint x="20" y="40" as="offset" />
          </mxGeometry>
        </mxCell>
        <mxCell id="wGZjn_woL5iFXJ5yavkG-29" value="[消息可发]" style="line;strokeWidth=1;dashed=1;labelPosition=center;verticalLabelPosition=bottom;align=left;verticalAlign=top;spacingLeft=20;spacingTop=15;" vertex="1" parent="wGZjn_woL5iFXJ5yavkG-27">
          <mxGeometry y="290" width="390.0000000000001" height="23.2" as="geometry" />
        </mxCell>
        <mxCell id="wGZjn_woL5iFXJ5yavkG-37" value="消息发送给服务端" style="html=1;verticalAlign=bottom;endArrow=block;align=center;exitX=1.045;exitY=0.755;exitDx=0;exitDy=0;exitPerimeter=0;" edge="1" parent="wGZjn_woL5iFXJ5yavkG-27" source="wGZjn_woL5iFXJ5yavkG-20">
          <mxGeometry width="80" relative="1" as="geometry">
            <mxPoint x="103" y="441" as="sourcePoint" />
            <mxPoint x="799.5" y="440.5999999999999" as="targetPoint" />
          </mxGeometry>
        </mxCell>
        <mxCell id="wGZjn_woL5iFXJ5yavkG-9" value="" style="html=1;points=[];perimeter=orthogonalPerimeter;" vertex="1" parent="wGZjn_woL5iFXJ5yavkG-3">
          <mxGeometry x="105" y="90" width="10" height="40" as="geometry" />
        </mxCell>
        <mxCell id="wGZjn_woL5iFXJ5yavkG-13" value="" style="html=1;points=[];perimeter=orthogonalPerimeter;" vertex="1" parent="wGZjn_woL5iFXJ5yavkG-3">
          <mxGeometry x="105" y="170" width="10" height="90" as="geometry" />
        </mxCell>
        <mxCell id="wGZjn_woL5iFXJ5yavkG-15" value="" style="html=1;points=[];perimeter=orthogonalPerimeter;" vertex="1" parent="wGZjn_woL5iFXJ5yavkG-3">
          <mxGeometry x="110" y="190" width="10" height="60" as="geometry" />
        </mxCell>
        <mxCell id="wGZjn_woL5iFXJ5yavkG-20" value="" style="html=1;points=[];perimeter=orthogonalPerimeter;" vertex="1" parent="wGZjn_woL5iFXJ5yavkG-3">
          <mxGeometry x="105" y="290" width="10" height="650" as="geometry" />
        </mxCell>
        <mxCell id="wGZjn_woL5iFXJ5yavkG-36" value="" style="html=1;points=[];perimeter=orthogonalPerimeter;" vertex="1" parent="wGZjn_woL5iFXJ5yavkG-3">
          <mxGeometry x="110" y="720" width="10" height="40" as="geometry" />
        </mxCell>
        <mxCell id="wGZjn_woL5iFXJ5yavkG-4" value="mq" style="shape=umlLifeline;perimeter=lifelinePerimeter;whiteSpace=wrap;html=1;container=1;collapsible=0;recursiveResize=0;outlineConnect=0;" vertex="1" parent="WIyWlLk6GJQsqaUBKTNV-1">
          <mxGeometry x="890" y="70" width="100" height="980" as="geometry" />
        </mxCell>
        <mxCell id="wGZjn_woL5iFXJ5yavkG-5" value="redis" style="shape=umlLifeline;perimeter=lifelinePerimeter;whiteSpace=wrap;html=1;container=1;collapsible=0;recursiveResize=0;outlineConnect=0;" vertex="1" parent="WIyWlLk6GJQsqaUBKTNV-1">
          <mxGeometry x="640" y="70" width="100" height="970" as="geometry" />
        </mxCell>
        <mxCell id="wGZjn_woL5iFXJ5yavkG-22" value="" style="html=1;points=[];perimeter=orthogonalPerimeter;" vertex="1" parent="wGZjn_woL5iFXJ5yavkG-5">
          <mxGeometry x="45" y="310" width="10" height="630" as="geometry" />
        </mxCell>
        <mxCell id="wGZjn_woL5iFXJ5yavkG-16" value="" style="html=1;points=[];perimeter=orthogonalPerimeter;" vertex="1" parent="wGZjn_woL5iFXJ5yavkG-5">
          <mxGeometry x="45" y="190" width="10" height="60" as="geometry" />
        </mxCell>
        <mxCell id="wGZjn_woL5iFXJ5yavkG-8" value="登录" style="html=1;verticalAlign=bottom;endArrow=block;exitX=1.033;exitY=0.067;exitDx=0;exitDy=0;exitPerimeter=0;entryX=-0.074;entryY=-0.002;entryDx=0;entryDy=0;entryPerimeter=0;" edge="1" parent="WIyWlLk6GJQsqaUBKTNV-1" source="wGZjn_woL5iFXJ5yavkG-7" target="wGZjn_woL5iFXJ5yavkG-9">
          <mxGeometry width="80" relative="1" as="geometry">
            <mxPoint x="120" y="150" as="sourcePoint" />
            <mxPoint x="320" y="160" as="targetPoint" />
          </mxGeometry>
        </mxCell>
        <mxCell id="wGZjn_woL5iFXJ5yavkG-10" value="javaServer" style="shape=umlLifeline;perimeter=lifelinePerimeter;whiteSpace=wrap;html=1;container=1;collapsible=0;recursiveResize=0;outlineConnect=0;" vertex="1" parent="WIyWlLk6GJQsqaUBKTNV-1">
          <mxGeometry x="1130" y="70" width="100" height="1030" as="geometry" />
        </mxCell>
        <mxCell id="wGZjn_woL5iFXJ5yavkG-12" value="" style="html=1;points=[];perimeter=orthogonalPerimeter;" vertex="1" parent="wGZjn_woL5iFXJ5yavkG-10">
          <mxGeometry x="45" y="130" width="10" height="40" as="geometry" />
        </mxCell>
        <mxCell id="wGZjn_woL5iFXJ5yavkG-14" value="返回鉴权信息" style="html=1;verticalAlign=bottom;endArrow=block;align=center;entryX=1;entryY=-0.014;entryDx=0;entryDy=0;entryPerimeter=0;exitX=-0.01;exitY=1.009;exitDx=0;exitDy=0;exitPerimeter=0;" edge="1" parent="WIyWlLk6GJQsqaUBKTNV-1" source="wGZjn_woL5iFXJ5yavkG-12" target="wGZjn_woL5iFXJ5yavkG-13">
          <mxGeometry width="80" relative="1" as="geometry">
            <mxPoint x="770" y="239" as="sourcePoint" />
            <mxPoint x="610" y="270" as="targetPoint" />
          </mxGeometry>
        </mxCell>
        <mxCell id="wGZjn_woL5iFXJ5yavkG-17" value="记录redis" style="html=1;verticalAlign=bottom;endArrow=block;align=center;entryX=-0.05;entryY=0.006;entryDx=0;entryDy=0;entryPerimeter=0;exitX=1.033;exitY=-0.012;exitDx=0;exitDy=0;exitPerimeter=0;" edge="1" parent="WIyWlLk6GJQsqaUBKTNV-1" source="wGZjn_woL5iFXJ5yavkG-15" target="wGZjn_woL5iFXJ5yavkG-16">
          <mxGeometry width="80" relative="1" as="geometry">
            <mxPoint x="345" y="250" as="sourcePoint" />
            <mxPoint x="425" y="250" as="targetPoint" />
          </mxGeometry>
        </mxCell>
        <mxCell id="wGZjn_woL5iFXJ5yavkG-18" value="记录成功" style="html=1;verticalAlign=bottom;endArrow=block;align=center;entryX=1.006;entryY=0.993;entryDx=0;entryDy=0;entryPerimeter=0;exitX=-0.05;exitY=1.002;exitDx=0;exitDy=0;exitPerimeter=0;" edge="1" parent="WIyWlLk6GJQsqaUBKTNV-1" source="wGZjn_woL5iFXJ5yavkG-16" target="wGZjn_woL5iFXJ5yavkG-15">
          <mxGeometry width="80" relative="1" as="geometry">
            <mxPoint x="390" y="310" as="sourcePoint" />
            <mxPoint x="470" y="310" as="targetPoint" />
          </mxGeometry>
        </mxCell>
        <mxCell id="wGZjn_woL5iFXJ5yavkG-19" value="登录成功" style="html=1;verticalAlign=bottom;endArrow=block;align=center;exitX=0.007;exitY=1;exitDx=0;exitDy=0;exitPerimeter=0;" edge="1" parent="WIyWlLk6GJQsqaUBKTNV-1" source="wGZjn_woL5iFXJ5yavkG-13">
          <mxGeometry width="80" relative="1" as="geometry">
            <mxPoint x="190" y="330" as="sourcePoint" />
            <mxPoint x="120" y="330" as="targetPoint" />
          </mxGeometry>
        </mxCell>
        <mxCell id="wGZjn_woL5iFXJ5yavkG-23" value="验证是否存活|登录态|在群" style="html=1;verticalAlign=bottom;endArrow=block;align=center;entryX=-0.036;entryY=0.003;entryDx=0;entryDy=0;entryPerimeter=0;" edge="1" parent="WIyWlLk6GJQsqaUBKTNV-1">
          <mxGeometry width="80" relative="1" as="geometry">
            <mxPoint x="478" y="381" as="sourcePoint" />
            <mxPoint x="682.6399999999999" y="380.84000000000003" as="targetPoint" />
          </mxGeometry>
        </mxCell>
        <mxCell id="wGZjn_woL5iFXJ5yavkG-11" value="http调用 | 获取用户信息|是否在群、是否登录" style="html=1;verticalAlign=bottom;endArrow=block;entryX=0.06;entryY=0.001;entryDx=0;entryDy=0;entryPerimeter=0;align=center;exitX=1.114;exitY=0.982;exitDx=0;exitDy=0;exitPerimeter=0;" edge="1" parent="WIyWlLk6GJQsqaUBKTNV-1" source="wGZjn_woL5iFXJ5yavkG-9" target="wGZjn_woL5iFXJ5yavkG-12">
          <mxGeometry x="0.75" y="10" width="80" relative="1" as="geometry">
            <mxPoint x="395" y="200" as="sourcePoint" />
            <mxPoint x="415" y="200" as="targetPoint" />
            <mxPoint as="offset" />
          </mxGeometry>
        </mxCell>
        <mxCell id="wGZjn_woL5iFXJ5yavkG-33" value="返回用户状态" style="html=1;verticalAlign=bottom;endArrow=block;align=center;exitX=-0.133;exitY=0.386;exitDx=0;exitDy=0;exitPerimeter=0;" edge="1" parent="WIyWlLk6GJQsqaUBKTNV-1" source="wGZjn_woL5iFXJ5yavkG-20" target="wGZjn_woL5iFXJ5yavkG-0">
          <mxGeometry width="80" relative="1" as="geometry">
            <mxPoint x="470" y="519.2800000000001" as="sourcePoint" />
            <mxPoint x="122" y="519" as="targetPoint" />
          </mxGeometry>
        </mxCell>
        <mxCell id="wGZjn_woL5iFXJ5yavkG-30" value="" style="endArrow=block;startArrow=none;endFill=1;startFill=0;endSize=8;html=1;verticalAlign=bottom;labelBackgroundColor=none;align=center;entryX=1.033;entryY=0.383;entryDx=0;entryDy=0;entryPerimeter=0;" edge="1" parent="WIyWlLk6GJQsqaUBKTNV-1" target="wGZjn_woL5iFXJ5yavkG-20">
          <mxGeometry width="160" relative="1" as="geometry">
            <mxPoint x="684" y="609" as="sourcePoint" />
            <mxPoint x="480" y="480" as="targetPoint" />
          </mxGeometry>
        </mxCell>
        <mxCell id="wGZjn_woL5iFXJ5yavkG-31" value="登出|退群" style="edgeLabel;html=1;align=center;verticalAlign=middle;resizable=0;points=[];" vertex="1" connectable="0" parent="wGZjn_woL5iFXJ5yavkG-30">
          <mxGeometry x="-0.1519" y="1" relative="1" as="geometry">
            <mxPoint as="offset" />
          </mxGeometry>
        </mxCell>
        <mxCell id="wGZjn_woL5iFXJ5yavkG-35" value="消息可发 | 并取到缓存消息" style="html=1;verticalAlign=bottom;endArrow=block;align=center;exitX=-0.133;exitY=0.642;exitDx=0;exitDy=0;exitPerimeter=0;entryX=1.033;entryY=0.653;entryDx=0;entryDy=0;entryPerimeter=0;" edge="1" parent="WIyWlLk6GJQsqaUBKTNV-1" source="wGZjn_woL5iFXJ5yavkG-22" target="wGZjn_woL5iFXJ5yavkG-20">
          <mxGeometry width="80" relative="1" as="geometry">
            <mxPoint x="683.3855263157897" y="851.3568" as="sourcePoint" />
            <mxPoint x="473.6578947368421" y="848.48" as="targetPoint" />
          </mxGeometry>
        </mxCell>
      </root>
    </mxGraphModel>
  </diagram>
</mxfile>
